<?xml version="1.0" encoding="utf-8"?>
<!-- Svg Vector Icons : http://www.onlinewebfonts.com/icon -->
<!DOCTYPE svg PUBLIC "-//W3C//DTD SVG 1.1//EN" "http://www.w3.org/Graphics/SVG/1.1/DTD/svg11.dtd">
<svg version="1.1" xmlns="http://www.w3.org/2000/svg" xmlns:xlink="http://www.w3.org/1999/xlink" x="0px" y="0px" viewBox="0 0 256 256" enable-background="new 0 0 256 256" xml:space="preserve">
<metadata> Svg Vector Icons : http://www.onlinewebfonts.com/icon </metadata>
<g><g><g><path fill="#000000" d="M11.3,14.9L10,16.3v96.7c0,103.2-0.1,98.7,2.1,99.5c1,0.4,112.8,0.4,113.9,0c0.9-0.4,2.1-2.5,2.1-3.8c0-0.5-0.6-1.5-1.2-2.3l-1.2-1.4H71.9H18.3v-91.5V21.9H128h109.7l0.1,59.6l0.1,59.6l1.1,1.2c1.9,2,5.1,1.5,6.4-1c0.4-0.7,0.6-16.8,0.6-63.1V16.3l-1.3-1.3l-1.3-1.3H128H12.7L11.3,14.9z"/><path fill="#000000" d="M131.2,55.3c-19.9,2.6-36.6,4.9-37.2,5c-0.6,0.1-1.4,0.8-1.8,1.4c-0.7,1.1-0.7,4.8-0.7,41.5l0.1,40.4l-2.3-1.7c-10.7-7.8-25.5-7-34.9,2.2c-3.5,3.4-5.5,6.4-6.7,10.1c-1,3.2-1.2,8.4-0.4,11.5c1.7,6.1,7,12.4,13.4,15.4c4.8,2.4,7.8,3,12.9,3c4.7,0,9.7-1.5,13.8-4c4.8-2.9,9.3-8.4,11.2-13.8c0.3-0.9,0.6-13.7,0.7-39.9L99.7,88l32.3-4.2c17.7-2.4,32.4-4.1,32.5-4c0.3,0.4,0.3,36.9,0,37.2c-0.1,0.2-1.2,0-2.3-0.5c-3.1-1.2-11-1.4-14.7-0.4c-12.2,3.2-20.8,14.7-19,25.4c0.7,4.1,3.3,9.3,6,12.2c1.9,2,2.4,2.3,4,2.3c2.4,0,3.9-1.4,3.9-3.8c0-1.3-0.4-2.2-2.1-4c-3-3.3-3.6-4.8-3.8-8.8c-0.2-4.5,1-7.8,3.9-10.8c5.5-5.7,16.1-6.9,23.1-2.7c5.4,3.3,6.6,3.5,8.4,1.2c0.9-1.2,0.9-2,0.9-37.6V53.1l-1.3-1.3c-0.9-0.9-1.8-1.3-2.7-1.3C168,50.5,151.1,52.7,131.2,55.3z M164.6,65c0,3.2-0.3,5.9-0.5,6.1c-0.2,0.2-14.4,2.2-31.5,4.4c-17.1,2.3-31.6,4.1-32.1,4.3c-1.1,0.2-1.1,0.2-1.1-5.8c0-4.4,0.1-6.1,0.6-6.3c0.6-0.2,62.2-8.4,63.7-8.5C164.7,59.2,164.8,59.4,164.6,65z M77.8,145.1c5.8,1.2,9.8,4.2,12,8.8c1.1,2.3,1.3,3.4,1.3,6.3c0,4.6-1,7.2-3.8,10.3c-6.8,7.5-21,7.7-28.2,0.6c-3-3-4.1-5.8-4.1-10.5c0-3.1,0.2-4.4,1-6.2C59.4,147,68.5,143.2,77.8,145.1z"/><path fill="#000000" d="M211.3,136.2c-0.9,0.3-2.5,0.9-3.5,1.3c-1,0.5-15.6,14.9-33.4,32.6l-31.6,31.7l-4.2,15.7c-3.6,13.5-4.4,15.9-5.5,17.1c-2.4,2.6-2.7,5-0.6,6.7c2,1.7,3.9,1.4,6.4-1c1.2-1.1,3.6-1.9,17.1-5.5l15.7-4.2l31.9-31.9c23.4-23.4,32.2-32.5,32.9-34c1.4-2.9,1.4-7.7,0-10.8c-1.4-3.1-13.7-15.4-16.7-16.8C217.2,136.1,213.6,135.6,211.3,136.2z M222.8,150.6c6.3,6.3,7.1,7.2,7.1,8.6c0,1.4-0.7,2.3-6.5,8l-6.5,6.5l-8.6-8.7l-8.7-8.6l6.5-6.5c5.8-5.7,6.6-6.5,8-6.5S216.5,144.3,222.8,150.6z M202.7,171l8.5,8.5l-20.9,20.9l-20.8,20.8l-8.6-8.7l-8.7-8.6l20.7-20.7c11.4-11.4,20.8-20.7,21-20.7C194.1,162.5,198,166.3,202.7,171z M155.2,218.5c3.4,3.4,6.1,6.3,6,6.4c-0.3,0.2-17.2,4.8-17.4,4.7c-0.2-0.2,4.7-17.4,4.9-17.4C148.9,212.3,151.8,215.1,155.2,218.5z"/></g></g></g>
</svg>