<?xml version="1.0" encoding="iso-8859-1"?>
<!-- Uploaded to: SVG Repo, www.svgrepo.com, Generator: SVG Repo Mixer Tools -->
<!DOCTYPE svg PUBLIC "-//W3C//DTD SVG 1.1//EN" "http://www.w3.org/Graphics/SVG/1.1/DTD/svg11.dtd">
<svg fill="#000000" height="800px" width="800px" version="1.1" id="Capa_1" xmlns="http://www.w3.org/2000/svg" xmlns:xlink="http://www.w3.org/1999/xlink" 
	 viewBox="0 0 489.302 489.302" xml:space="preserve">
<path d="M180.846,312.257c5.146,2.971,10.222,4.541,14.679,4.541c7.456,0,12.749-4.457,13.844-11.344
	c0.409-0.73,0.636-1.564,0.638-2.43l0.232-81.805l55.752,32.188l-0.174,61.546c-0.461-0.288-0.926-0.567-1.393-0.837
	c-5.144-2.97-10.219-4.539-14.677-4.539c-8.384,0-14.033,5.634-14.057,14.02c-0.032,11.379,10.35,26.3,23.635,33.97
	c5.147,2.972,10.225,4.542,14.684,4.542c7.754,0,13.168-4.819,13.957-12.177c0.201-0.543,0.308-1.124,0.31-1.72l0.335-118.256
	c0.005-1.792-0.949-3.449-2.5-4.345l-90.803-52.425c-1.544-0.891-3.447-0.894-4.994-0.004c-1.546,0.89-2.501,2.536-2.506,4.32
	l-0.261,92.272c-0.531-0.336-1.066-0.659-1.604-0.97c-5.146-2.972-10.224-4.542-14.684-4.542c-8.384,0-14.033,5.634-14.056,14.019
	C157.172,289.661,167.556,304.584,180.846,312.257z M171.261,274.265c2.668,0,6.107,1.137,9.683,3.202
	c2.806,1.62,5.531,3.701,8.098,6.186c1.441,1.395,3.577,1.792,5.421,1.013c1.847-0.78,3.049-2.588,3.055-4.592l0.266-93.909
	l80.819,46.66l-0.322,113.801c-0.14,0.46-0.214,0.943-0.215,1.438c-0.008,2.913-1.146,4.047-4.056,4.047
	c-2.667,0-6.107-1.137-9.685-3.202c-11.006-6.354-18.654-18.423-18.635-25.28c0.008-2.914,1.146-4.049,4.057-4.049
	c2.667,0,6.103,1.136,9.676,3.198c2.735,1.58,5.396,3.601,7.908,6.004c1.445,1.383,3.574,1.77,5.415,0.987
	c1.84-0.783,3.036-2.587,3.042-4.586L276,250.541c0.005-1.792-0.949-3.449-2.5-4.345l-65.736-37.953
	c-1.544-0.891-3.448-0.893-4.994-0.004c-1.546,0.89-2.501,2.536-2.506,4.319l-0.25,88.166c-0.28,0.627-0.432,1.314-0.434,2.023
	c-0.008,2.915-1.145,4.05-4.055,4.05c-2.666,0-6.104-1.137-9.679-3.201c-11.01-6.356-18.661-18.427-18.641-25.285
	C167.213,275.399,168.35,274.265,171.261,274.265z M384.24,129.309c-0.001-0.299-0.038-0.591-0.09-0.879
	c-0.014-0.075-0.028-0.149-0.045-0.223c-0.064-0.279-0.143-0.554-0.253-0.815c-0.01-0.024-0.024-0.046-0.035-0.07
	c-0.105-0.241-0.233-0.469-0.375-0.69c-0.041-0.063-0.081-0.125-0.125-0.187c-0.163-0.231-0.339-0.454-0.54-0.655
	c-0.003-0.003-0.007-0.006-0.011-0.01c-0.196-0.195-0.414-0.368-0.642-0.53c-0.065-0.046-0.131-0.089-0.198-0.132
	c-0.063-0.041-0.121-0.087-0.186-0.125L178.924,7.897C169.975,2.73,159.783,0,149.45,0c-10.451,0-20.744,2.79-29.766,8.067
	c-9.187,5.374-14.653,14.938-14.623,25.58c0.004,1.388,0.106,2.755,0.293,4.099v301.217c0,18.497,9.958,35.721,25.988,44.949
	l181.896,104.723c0.147,0.085,0.3,0.154,0.453,0.223c0.042,0.019,0.08,0.042,0.123,0.06c0.263,0.109,0.535,0.188,0.809,0.251
	c0.074,0.017,0.148,0.03,0.223,0.044c0.294,0.053,0.59,0.089,0.887,0.089c0.298,0,0.594-0.037,0.888-0.089
	c0.075-0.014,0.15-0.027,0.224-0.044c0.277-0.063,0.55-0.142,0.815-0.253c0.033-0.014,0.063-0.033,0.096-0.047
	c0.166-0.074,0.331-0.15,0.49-0.243l63.506-36.905c0.046-0.027,0.082-0.064,0.127-0.092c0.155-0.097,0.297-0.207,0.44-0.319
	c0.12-0.094,0.241-0.186,0.35-0.289c0.119-0.113,0.225-0.237,0.333-0.362c0.105-0.121,0.212-0.238,0.304-0.368
	c0.095-0.133,0.173-0.276,0.255-0.418c0.077-0.135,0.158-0.268,0.222-0.409c0.069-0.151,0.119-0.309,0.173-0.468
	c0.05-0.149,0.103-0.296,0.139-0.449c0.036-0.152,0.055-0.308,0.077-0.465c0.024-0.175,0.047-0.348,0.053-0.525
	c0.002-0.054,0.016-0.105,0.016-0.16V129.323l-0.001-0.006C384.24,129.314,384.24,129.312,384.24,129.309z M320.734,169.342
	l53.506-31.301v306.478l-53.506,31.094V169.342z M124.735,16.698C132.225,12.316,140.771,10,149.45,10
	c8.58,0,17.043,2.268,24.474,6.558l195.365,112.794l-53.572,31.34L124.831,50.483c-5.123-2.957-8.509-7.884-9.476-13.558v-5.905
	c0-0.174-0.034-0.339-0.051-0.509C116.19,24.749,119.568,19.721,124.735,16.698z M115.355,338.963V55.978
	c1.375,1.17,2.865,2.236,4.476,3.166l11.698,6.754V324.66c0,2.762,2.239,5,5,5s5-2.238,5-5V71.671l169.205,97.69v306.292
	l-169.205-97.415v-17.167c0-2.762-2.239-5-5-5s-5,2.238-5,5v10.936C121.437,364.146,115.355,351.945,115.355,338.963z
	 M343.045,173.262v267.835c0,2.762-2.239,5-5,5s-5-2.238-5-5V173.262c0-2.762,2.239-5,5-5S343.045,170.5,343.045,173.262z
	 M364.485,161.834v267.835c0,2.762-2.239,5-5,5s-5-2.238-5-5V161.834c0-2.762,2.239-5,5-5S364.485,159.072,364.485,161.834z
	 M122.619,32.346c1.371-2.398,4.426-3.23,6.822-1.86l191.895,109.656c2.397,1.37,3.23,4.424,1.86,6.821
	c-0.923,1.615-2.61,2.521-4.346,2.521c-0.841,0-1.693-0.213-2.476-0.66L124.48,39.167C122.082,37.797,121.249,34.743,122.619,32.346
	z M141.808,17.264c1.37-2.397,4.425-3.231,6.821-1.862l191.896,109.58c2.398,1.369,3.232,4.423,1.862,6.821
	c-0.922,1.615-2.61,2.521-4.346,2.521c-0.841,0-1.693-0.212-2.475-0.659L143.67,24.085
	C141.272,22.716,140.438,19.662,141.808,17.264z"/>
</svg>